# xmcd CD database file
#
# Track frame offsets:
#	150
#	59651
#	90431
#	118885
#	146879
#	195868
#	225929
#	254263
#	296993
#	322927
#
# Disc length: 4712 seconds
#
# Revision: 0
# Processed by: cddbd v1.5.2PL0 Copyright (c) Steve Scherf et al.
# Submitted via: CDex 1.51
#
DISCID=8e12660a
DTITLE=Jandek - Glasgow Friday
DYEAR=2008
DGENRE=Blues
TTITLE0=Walking Blues
TTITLE1=Goodbye Today
TTITLE2=This Wasted Life
TTITLE3=Slave Of The River
TTITLE4=My Plan
TTITLE5=If I Could Be With You
TTITLE6=Out And About
TTITLE7=These Kokomos
TTITLE8=Something New
TTITLE9=Arms Of A Stranger
EXTD=YEAR: 2008
EXTT0=
EXTT1=
EXTT2=
EXTT3=
EXTT4=
EXTT5=
EXTT6=
EXTT7=
EXTT8=
EXTT9=
PLAYORDER=
